<svg width="35" height="35" viewBox="0 0 35 35" fill="none" xmlns="http://www.w3.org/2000/svg">
<path d="M21.875 2.91669H8.75004C7.97649 2.91669 7.23463 3.22398 6.68765 3.77096C6.14066 4.31794 5.83337 5.05981 5.83337 5.83335V29.1667C5.83337 29.9402 6.14066 30.6821 6.68765 31.2291C7.23463 31.7761 7.97649 32.0834 8.75004 32.0834H26.25C27.0236 32.0834 27.7655 31.7761 28.3124 31.2291C28.8594 30.6821 29.1667 29.9402 29.1667 29.1667V10.2084L21.875 2.91669Z" stroke="#F5A623" stroke-width="2.91667" stroke-linecap="round" stroke-linejoin="round"/>
<path d="M20.4166 2.91669V8.75002C20.4166 9.52357 20.7239 10.2654 21.2709 10.8124C21.8179 11.3594 22.5597 11.6667 23.3333 11.6667H29.1666" stroke="#F5A623" stroke-width="2.91667" stroke-linecap="round" stroke-linejoin="round"/>
<path d="M14.5833 13.125H11.6666" stroke="#F5A623" stroke-width="2.91667" stroke-linecap="round" stroke-linejoin="round"/>
<path d="M23.3333 18.9583H11.6666" stroke="#F5A623" stroke-width="2.91667" stroke-linecap="round" stroke-linejoin="round"/>
<path d="M23.3333 24.7917H11.6666" stroke="#F5A623" stroke-width="2.91667" stroke-linecap="round" stroke-linejoin="round"/>
</svg>
