<svg width="35" height="35" viewBox="0 0 35 35" fill="none" xmlns="http://www.w3.org/2000/svg">
<path d="M13.125 26.25V7.29167L30.625 4.375V23.3333" stroke="#52C4A0" stroke-width="2.91667" stroke-linecap="round" stroke-linejoin="round"/>
<path d="M8.75 30.625C11.1662 30.625 13.125 28.6662 13.125 26.25C13.125 23.8338 11.1662 21.875 8.75 21.875C6.33375 21.875 4.375 23.8338 4.375 26.25C4.375 28.6662 6.33375 30.625 8.75 30.625Z" stroke="#52C4A0" stroke-width="2.91667" stroke-linecap="round" stroke-linejoin="round"/>
<path d="M26.25 27.7083C28.6662 27.7083 30.625 25.7495 30.625 23.3333C30.625 20.917 28.6662 18.9583 26.25 18.9583C23.8338 18.9583 21.875 20.917 21.875 23.3333C21.875 25.7495 23.8338 27.7083 26.25 27.7083Z" stroke="#52C4A0" stroke-width="2.91667" stroke-linecap="round" stroke-linejoin="round"/>
</svg>
