<svg width="35" height="35" viewBox="0 0 35 35" fill="none" xmlns="http://www.w3.org/2000/svg">
<path d="M20.0229 5.83335C19.7665 5.39136 19.3985 5.02449 18.9557 4.76946C18.5129 4.51442 18.0109 4.38019 17.5 4.38019C16.989 4.38019 16.487 4.51442 16.0442 4.76946C15.6014 5.02449 15.2334 5.39136 14.977 5.83335L3.31038 26.25C3.05451 26.6932 2.91975 27.1959 2.91962 27.7076C2.91949 28.2193 3.05399 28.7221 3.30963 29.1654C3.56527 29.6087 3.93304 29.9769 4.37601 30.2331C4.81898 30.4893 5.32157 30.6245 5.83329 30.625H29.1666C29.6784 30.6245 30.1809 30.4893 30.6239 30.2331C31.0669 29.9769 31.4347 29.6087 31.6903 29.1654C31.9459 28.7221 32.0804 28.2193 32.0803 27.7076C32.0802 27.1959 31.9454 26.6932 31.6895 26.25L20.0229 5.83335Z" stroke="#A78BFA" stroke-width="2.91667" stroke-linecap="round" stroke-linejoin="round"/>
</svg>
